<?xml version="1.0" standalone="no"?>
<!DOCTYPE svg PUBLIC "-//W3C//DTD SVG 20010904//EN"
 "http://www.w3.org/TR/2001/REC-SVG-20010904/DTD/svg10.dtd">
<svg version="1.0" xmlns="http://www.w3.org/2000/svg" width="170" viewBox="0 0 820.000000 820.000000"
 preserveAspectRatio="xMidYMid meet">

<g transform="translate(0.000000,820.000000) scale(0.100000,-0.100000)"
fill="#dddddd" stroke="none">
<path d="M3820 8000 c-30 -11 -64 -24 -75 -29 -11 -5 -50 -23 -86 -40 -36 -17
-71 -31 -77 -31 -7 0 -12 -4 -12 -10 0 -5 -6 -10 -13 -10 -25 0 -195 -120
-263 -187 -68 -67 -184 -213 -184 -232 0 -5 -3 -11 -8 -13 -13 -5 -109 -209
-132 -278 -12 -36 -25 -74 -30 -85 -89 -218 -119 -738 -66 -1150 31 -236 37
-278 41 -285 2 -3 9 -33 15 -66 9 -52 16 -90 49 -249 15 -70 33 -139 42 -157
5 -10 9 -24 9 -33 0 -8 6 -34 14 -57 7 -24 21 -72 31 -108 9 -36 21 -74 25
-85 5 -11 16 -45 25 -75 10 -30 24 -70 31 -88 8 -18 14 -41 14 -52 0 -10 4
-21 9 -25 5 -3 13 -20 17 -37 3 -18 10 -39 14 -48 4 -8 16 -35 25 -60 30 -78
46 -114 55 -132 6 -10 10 -22 10 -27 0 -5 14 -40 31 -78 17 -37 38 -84 46
-103 51 -116 193 -411 203 -420 3 -3 22 -39 42 -80 43 -85 104 -198 117 -214
4 -6 23 -38 41 -71 18 -33 42 -75 52 -93 21 -37 22 -42 9 -42 -6 0 -28 26 -50
58 -22 31 -45 62 -50 68 -5 6 -20 29 -34 51 -14 22 -32 46 -40 54 -8 8 -18 25
-21 37 -4 12 -12 22 -17 22 -5 0 -9 7 -9 15 0 8 -4 15 -9 15 -5 0 -13 10 -17
23 -4 12 -10 24 -13 27 -12 9 -91 139 -91 149 0 5 -4 11 -8 13 -8 3 -72 104
-72 113 0 2 -20 38 -45 78 -25 41 -45 80 -45 86 0 6 -3 11 -7 11 -5 0 -17 19
-28 43 -11 23 -22 44 -25 47 -3 3 -21 37 -40 75 -19 39 -38 72 -42 73 -5 2 -8
8 -8 13 0 5 -25 60 -55 123 -30 62 -55 118 -55 124 0 7 -4 12 -10 12 -5 0 -10
5 -10 11 0 5 -11 34 -24 62 -40 88 -99 225 -131 302 -28 68 -32 79 -50 125 -9
25 -21 53 -26 62 -5 10 -9 23 -9 29 0 6 -6 25 -14 42 -20 44 -59 154 -96 267
-17 52 -35 104 -39 115 -5 11 -16 47 -26 80 -30 102 -47 159 -56 180 -7 20
-23 80 -39 145 -4 19 -15 62 -24 95 -21 75 -49 183 -66 258 -7 32 -17 60 -22
63 -7 5 -98 -79 -98 -91 0 -2 -18 -23 -40 -47 -23 -23 -55 -65 -73 -93 -17
-27 -34 -52 -37 -55 -3 -3 -14 -23 -25 -45 -11 -22 -23 -41 -27 -43 -5 -2 -8
-8 -8 -14 0 -5 -13 -37 -28 -71 -32 -71 -73 -198 -98 -307 -25 -105 -25 -431
0 -545 26 -123 57 -232 83 -292 7 -17 13 -36 13 -42 0 -6 4 -19 10 -29 8 -15
22 -49 50 -117 38 -93 183 -389 193 -393 4 -2 7 -8 7 -13 0 -5 25 -52 55 -104
30 -53 55 -100 55 -105 0 -6 3 -10 8 -10 4 0 18 -20 32 -45 14 -25 28 -45 31
-45 4 0 9 -8 13 -17 5 -16 17 -37 38 -67 5 -6 45 -64 91 -129 46 -64 92 -127
103 -140 10 -12 35 -42 54 -67 19 -25 37 -47 40 -50 3 -3 15 -17 25 -31 79
-102 446 -480 545 -561 25 -20 59 -48 75 -63 48 -42 67 -58 115 -95 25 -19 51
-40 58 -47 7 -6 50 -39 97 -73 80 -58 107 -87 68 -73 -29 10 -248 145 -251
154 -2 5 -7 9 -12 9 -18 0 -321 214 -328 232 -2 4 -10 8 -17 8 -7 0 -15 4 -17
8 -1 4 -23 23 -48 42 -25 19 -47 38 -50 41 -5 7 -68 60 -134 113 -41 32 -468
457 -521 517 -16 19 -52 61 -80 94 -27 33 -52 62 -55 65 -3 3 -25 32 -49 65
-25 33 -50 65 -55 70 -23 21 -126 165 -126 175 0 5 -4 10 -8 10 -4 0 -19 18
-32 40 -14 22 -28 40 -32 40 -5 0 -8 6 -8 14 0 8 -3 16 -7 18 -5 2 -30 37 -58
78 -27 41 -52 77 -55 80 -10 10 -31 45 -36 63 -4 9 -10 17 -15 17 -5 0 -9 6
-9 14 0 8 -6 21 -13 28 -6 7 -21 30 -32 51 -11 20 -23 37 -27 37 -5 0 -8 5 -8
11 0 6 -20 44 -45 83 -25 40 -45 78 -45 84 0 5 -3 12 -7 14 -5 2 -21 28 -37
58 -66 127 -80 150 -90 150 -12 0 -80 -101 -106 -159 -70 -149 -96 -234 -120
-401 -12 -75 -6 -396 8 -445 6 -22 18 -76 28 -120 10 -44 21 -84 26 -90 4 -5
8 -15 8 -23 0 -14 21 -67 46 -114 8 -14 14 -33 14 -42 0 -9 5 -16 10 -16 6 0
10 -5 10 -12 0 -13 61 -111 72 -116 5 -2 8 -10 8 -17 0 -8 6 -18 13 -22 6 -4
28 -28 49 -54 71 -88 212 -224 357 -344 13 -11 42 -37 64 -58 23 -20 44 -37
48 -37 4 0 21 -13 37 -30 17 -17 33 -30 37 -30 6 0 22 -12 53 -41 34 -31 202
-149 212 -149 5 0 10 -3 10 -8 0 -4 18 -18 40 -32 22 -14 40 -28 40 -32 0 -5
7 -8 15 -8 8 0 15 -4 15 -9 0 -5 8 -11 18 -15 18 -6 54 -27 62 -37 7 -8 239
-149 245 -149 3 0 22 -11 43 -23 85 -54 295 -163 422 -220 19 -8 62 -28 95
-42 33 -15 83 -36 110 -46 50 -19 59 -23 125 -51 19 -8 63 -23 97 -34 35 -10
63 -22 63 -26 0 -5 8 -8 18 -8 18 0 105 -26 133 -41 9 -4 34 -11 55 -15 22 -3
44 -9 49 -13 6 -3 48 -16 95 -28 131 -33 31 -24 -132 12 -119 26 -202 45 -238
55 -109 27 -127 32 -145 39 -11 5 -47 16 -80 26 -93 27 -148 46 -167 56 -10 5
-26 9 -35 9 -10 0 -31 7 -47 15 -15 8 -37 15 -47 15 -11 0 -19 4 -19 9 0 5
-18 12 -40 16 -22 4 -40 11 -40 16 0 5 -7 9 -16 9 -9 0 -32 7 -52 16 -21 9
-46 20 -57 24 -11 5 -51 23 -88 39 -38 17 -71 31 -73 31 -3 0 -42 18 -86 40
-45 22 -88 40 -94 40 -7 0 -14 3 -16 8 -1 4 -48 30 -103 57 -55 28 -102 52
-105 55 -3 3 -25 15 -50 28 -25 13 -61 32 -80 44 -19 11 -49 28 -65 37 -17 9
-44 25 -60 37 -17 11 -37 24 -45 27 -8 4 -27 15 -42 25 -14 9 -62 39 -105 66
-117 75 -268 178 -271 188 -2 4 -8 8 -13 8 -9 0 -199 137 -209 150 -3 4 -14
12 -26 18 -12 6 -39 26 -62 44 -22 18 -55 44 -73 58 -18 14 -37 30 -43 35 -6
6 -31 26 -56 45 -25 19 -51 41 -59 48 -9 9 -17 10 -24 3 -20 -20 -9 -447 13
-476 4 -5 10 -32 14 -60 3 -27 10 -63 15 -80 33 -112 46 -152 53 -165 22 -45
68 -153 68 -161 0 -5 5 -9 10 -9 6 0 10 -5 10 -12 0 -6 15 -34 32 -62 35 -55
36 -56 73 -101 14 -16 25 -33 25 -38 0 -14 225 -233 290 -282 36 -27 67 -52
70 -55 3 -3 14 -10 25 -17 33 -20 249 -153 265 -163 17 -11 153 -77 185 -90
11 -4 38 -15 60 -25 22 -9 49 -20 60 -24 11 -5 33 -14 50 -20 16 -7 56 -21 90
-32 33 -11 69 -24 80 -28 48 -19 124 -41 139 -41 9 0 24 -4 34 -10 17 -9 58
-19 192 -46 126 -25 181 -34 275 -45 50 -5 126 -15 170 -20 170 -22 774 -1
1030 36 72 10 219 35 265 45 25 5 63 12 85 15 22 4 49 10 60 14 24 10 125 31
175 38 l35 4 -30 -14 c-16 -8 -57 -22 -90 -32 -33 -9 -69 -20 -80 -25 -21 -9
-91 -28 -135 -36 -14 -3 -34 -9 -45 -14 -11 -5 -45 -14 -75 -20 -30 -7 -84
-18 -120 -27 -138 -31 -346 -61 -580 -82 -311 -29 -680 -17 -1005 34 -191 29
-214 33 -223 39 -5 3 -33 10 -63 15 -30 5 -83 17 -119 26 -36 9 -81 20 -100
24 -19 5 -48 13 -65 19 -16 5 -70 22 -120 37 -49 15 -105 33 -123 41 -18 8
-41 14 -52 14 -10 0 -20 3 -22 8 -1 4 -28 15 -58 25 -30 10 -68 24 -85 32 -16
7 -41 18 -55 24 -14 6 -40 15 -57 20 -30 9 -33 8 -33 -12 0 -51 55 -275 71
-291 5 -6 9 -16 9 -23 0 -28 98 -172 160 -233 85 -85 104 -100 201 -160 82
-51 137 -79 239 -120 30 -12 62 -25 70 -30 9 -4 31 -11 50 -15 19 -4 40 -10
45 -14 6 -4 44 -15 85 -25 41 -9 91 -21 110 -26 150 -38 469 -63 765 -58 181
2 225 0 249 -12 43 -22 53 -43 36 -77 -23 -44 -70 -83 -172 -145 -21 -13 -38
-26 -38 -29 0 -4 14 -9 31 -13 46 -9 419 -6 534 4 167 15 286 29 295 35 4 3
34 9 67 14 75 12 172 34 248 56 33 10 71 20 85 23 14 2 30 8 35 12 6 5 27 11
48 15 20 4 40 11 43 16 3 5 13 9 22 9 9 0 30 7 46 15 15 8 35 15 42 15 8 0 22
4 32 10 31 17 111 50 121 50 6 0 11 5 11 10 0 6 6 10 13 10 12 0 98 43 237
117 58 31 78 43 117 70 17 13 34 23 37 23 9 0 101 64 104 72 2 4 8 8 14 8 5 0
44 26 86 58 73 54 88 66 138 109 12 10 42 36 68 58 51 44 196 185 196 191 0 2
12 16 28 32 51 54 82 92 82 101 0 5 4 11 9 13 6 2 37 41 70 88 33 47 64 90 68
96 16 21 33 49 40 64 4 8 9 17 12 20 3 3 19 30 35 60 83 160 116 231 116 249
0 6 5 11 10 11 6 0 10 7 10 16 0 9 6 30 14 47 20 44 61 167 87 262 66 244 88
495 63 705 -16 131 -34 222 -45 235 -5 5 -9 18 -9 30 0 42 -56 170 -154 350
-11 21 -86 126 -96 135 -3 3 -21 25 -40 50 -45 57 -208 220 -285 285 -33 28
-62 52 -65 55 -20 20 -110 83 -260 182 -317 209 -385 253 -395 257 -5 2 -14 8
-20 13 -15 13 -194 131 -216 143 -10 5 -19 13 -19 17 0 5 -5 8 -10 8 -9 0
-165 109 -225 156 -11 9 -46 34 -77 57 -32 22 -58 45 -58 49 0 4 -6 8 -14 8
-8 0 -16 3 -18 8 -1 4 -34 34 -73 67 -162 140 -302 305 -320 378 -4 15 -11 27
-16 27 -5 0 -9 8 -9 18 0 9 -7 37 -16 62 -23 64 -22 269 1 347 10 32 24 72 31
90 8 17 14 38 14 46 0 9 3 17 8 19 4 2 15 19 25 38 17 35 92 119 135 152 35
28 133 78 151 78 10 0 23 6 30 13 8 8 51 12 141 12 90 0 133 -4 141 -12 7 -7
21 -13 31 -13 18 0 120 -58 126 -72 2 -4 8 -8 12 -8 12 0 58 -45 96 -95 27
-35 45 -70 73 -140 17 -41 29 -162 24 -228 -6 -70 14 -244 28 -253 5 -3 9 -12
9 -20 0 -17 31 -83 60 -129 10 -16 19 -36 19 -43 1 -8 7 -28 15 -45 8 -18 16
-41 19 -52 12 -42 65 -186 71 -192 3 -3 6 -17 6 -29 0 -13 4 -25 9 -29 5 -3
13 -20 17 -37 3 -18 10 -39 15 -48 4 -8 19 -40 33 -72 36 -82 85 -121 168
-135 l38 -6 -6 59 c-3 33 -10 84 -16 114 -11 56 -17 98 -39 253 -19 133 4 188
100 238 150 78 223 264 192 492 -7 51 -16 96 -22 102 -5 5 -9 17 -9 27 0 10
-4 26 -9 36 -6 9 -26 53 -47 97 -32 69 -78 149 -94 165 -3 3 -18 23 -34 44
-38 50 -109 122 -166 166 -25 19 -47 37 -50 40 -7 7 -42 29 -60 37 -8 4 -21
13 -28 20 -7 7 -20 13 -28 13 -8 0 -14 4 -14 9 0 5 -13 12 -30 16 -16 4 -30
11 -30 16 0 5 -7 9 -15 9 -8 0 -23 4 -33 10 -31 18 -176 70 -195 70 -10 0 -27
4 -37 10 -38 20 -256 32 -376 21 -63 -6 -124 -15 -136 -20 -13 -5 -50 -17 -83
-27 -33 -10 -71 -24 -85 -31 -14 -7 -31 -13 -37 -13 -7 0 -13 -4 -13 -10 0 -5
-6 -10 -13 -10 -23 0 -190 -116 -246 -172 -93 -91 -221 -279 -221 -322 0 -9
-4 -16 -10 -16 -5 0 -10 -7 -10 -16 0 -9 -6 -30 -14 -47 -15 -33 -18 -46 -35
-132 -33 -170 -38 -241 -21 -334 35 -206 38 -217 56 -258 8 -17 14 -36 14 -42
0 -12 81 -171 95 -187 5 -6 23 -31 39 -56 38 -60 286 -303 396 -388 25 -19 55
-45 67 -57 12 -13 26 -23 32 -23 5 0 11 -4 13 -8 2 -4 23 -23 48 -42 24 -19
56 -45 70 -57 13 -13 28 -23 31 -23 3 0 17 -9 30 -21 54 -46 65 -55 94 -73 17
-11 35 -24 41 -30 6 -6 22 -18 34 -26 12 -8 28 -21 36 -27 7 -7 17 -13 22 -13
6 0 12 -3 14 -7 2 -5 26 -24 53 -43 28 -19 56 -40 63 -47 7 -7 19 -13 27 -13
7 0 15 -4 17 -8 2 -5 26 -23 53 -42 28 -18 52 -36 55 -39 3 -3 39 -28 80 -56
41 -27 77 -53 78 -57 2 -5 8 -8 13 -8 6 0 15 -5 22 -10 60 -51 76 -64 107 -83
19 -12 44 -29 55 -39 11 -9 31 -26 44 -37 13 -12 27 -21 31 -21 4 0 51 -43
104 -96 85 -84 202 -229 245 -304 27 -48 71 -139 71 -148 0 -5 7 -23 15 -38 8
-16 15 -41 15 -56 0 -15 4 -29 9 -32 14 -9 23 -204 12 -281 -10 -77 -26 -146
-40 -173 -5 -9 -23 -46 -41 -82 -88 -178 -266 -330 -462 -395 -29 -10 -62 -21
-73 -26 -43 -18 -221 -41 -279 -36 -74 6 -178 24 -226 39 -86 27 -222 86 -228
101 -2 4 -10 7 -17 7 -40 0 -219 161 -296 265 -67 91 -149 267 -149 318 0 13
-5 28 -10 33 -6 6 -11 64 -11 139 0 75 5 133 11 139 5 5 10 23 10 38 0 24 14
72 40 133 5 11 12 34 15 51 l6 31 -137 12 c-144 13 -164 17 -164 33 0 5 -12
35 -26 66 -14 31 -30 66 -35 77 -54 121 -97 394 -85 537 14 154 39 313 56 353
16 38 19 69 8 82 -24 30 -187 10 -218 -26 -3 -3 -31 -30 -62 -59 l-56 -54 -17
59 c-9 32 -23 75 -31 96 -8 20 -14 48 -14 61 0 12 -3 26 -7 30 -4 4 -14 33
-21 64 -7 31 -17 75 -22 97 -22 92 -42 194 -51 255 -5 36 -12 72 -15 80 -6 14
-9 41 -33 270 -6 58 -17 148 -23 200 -16 134 -16 921 0 1025 6 44 17 121 23
170 18 151 47 318 61 355 4 8 9 33 13 55 3 22 10 54 15 70 5 17 16 57 26 90 9
33 20 67 24 75 4 9 11 30 14 48 4 17 12 34 17 37 5 4 9 15 9 26 0 10 4 27 10
37 5 9 16 35 26 57 29 72 42 99 98 215 31 63 56 120 56 126 0 7 -33 14 -82 17
-128 10 -168 8 -228 -13z m1363 -6637 c-7 -2 -19 -2 -25 0 -7 3 -2 5 12 5 14
0 19 -2 13 -5z"/>
</g>
</svg>
