<svg xmlns="http://www.w3.org/2000/svg" preserveAspectRatio="xMidYMid meet" height="100" width="100" viewBox="400 300 800.000000 600.000000">

    <g transform="translate(0.000000,1200.000000) scale(0.100000,-0.100000)" fill="#000000" stroke="none">
        <path d="M11050 8799 c0 -5 5 -7 10 -4 6 3 10 8 10 11 0 2 -4 4 -10 4 -5 0 -10 -5 -10 -11z"/><path d="M10950 8694 c0 -9 5 -14 12 -12 18 6 21 28 4 28 -9 0 -16 -7 -16 -16z"/><path d="M10845 8601 c-8 -15 3 -31 21 -31 9 0 14 7 12 17 -4 20 -24 28 -33 14z"/><path d="M11050 8520 c0 -5 5 -10 10 -10 6 0 10 5 10 10 0 6 -4 10 -10 10 -5 0 -10 -4 -10 -10z"/><path d="M10734 8489 c-8 -14 21 -43 35 -35 6 4 11 16 11 27 0 21 -34 27 -46 8z"/><path d="M10945 8420 c-4 -6 -3 -16 3 -22 6 -6 12 -6 17 2 4 6 3 16 -3 22 -6 6 -12 6 -17 -2z"/><path d="M10624 8385 c-4 -9 0 -23 8 -31 20 -20 50 -7 46 20 -4 26 -45 35 -54 11z"/><path d="M6520 8353 c-431 -55 -871 -303 -1115 -628 -94 -124 -165 -304 -165 -415 0 -53 30 -124 58 -139 49 -26 162 0 246 58 59 41 160 144 211 214 38 54 75 74 75 42 0 -8 -27 -55 -60 -103 -133 -196 -156 -373 -61 -475 l38 -40 66 30 c97 46 174 102 249 181 83 88 126 155 195 302 138 293 164 339 217 398 30 32 78 71 108 87 48 27 62 30 143 30 109 0 164 -23 237 -97 63 -65 89 -137 89 -243 -1 -242 -115 -517 -352 -850 -139 -195 -279 -363 -649 -780 -588 -662 -798 -941 -961 -1280 -109 -225 -157 -404 -166 -616 -9 -223 33 -416 134 -613 58 -112 147 -209 208 -225 27 -7 288 -11 813 -11 652 0 778 2 807 14 19 8 35 20 35 27 0 7 10 3 23 -9 43 -40 93 -23 112 38 l8 25 9 -31 c16 -61 108 -65 116 -4 2 13 12 30 22 37 10 7 21 26 25 43 4 16 11 32 16 35 16 10 10 -38 -7 -56 -20 -22 -21 -63 -4 -84 29 -35 100 -8 100 38 0 12 9 28 20 35 12 7 20 23 20 40 0 16 8 32 20 40 13 8 20 23 20 41 0 40 17 48 22 11 3 -21 -1 -35 -15 -47 -12 -12 -17 -26 -13 -43 3 -19 -1 -29 -15 -38 -39 -25 -14 -92 35 -92 28 0 59 32 54 56 -2 10 7 28 19 41 13 12 23 31 23 43 0 11 9 29 20 40 11 11 20 33 20 48 0 16 9 37 20 47 12 11 20 32 21 54 l1 36 8 -34 c6 -27 4 -40 -11 -61 -16 -20 -18 -32 -10 -51 7 -21 5 -28 -11 -38 -14 -9 -18 -21 -16 -44 2 -22 -4 -38 -19 -54 -28 -27 -28 -34 -4 -64 16 -20 23 -22 47 -14 23 8 30 17 32 43 2 18 14 43 28 57 18 18 23 32 19 46 -5 14 1 26 20 41 19 15 25 28 23 47 -1 17 7 39 20 56 15 19 21 37 18 51 -4 14 1 28 14 39 13 12 20 31 20 56 0 21 4 40 9 43 5 4 7 -3 4 -13 -3 -10 0 -28 6 -38 8 -15 6 -23 -10 -37 -15 -12 -19 -27 -17 -54 2 -25 -3 -43 -14 -54 -20 -20 -24 -73 -7 -84 7 -4 2 -11 -13 -18 -29 -15 -35 -52 -12 -77 15 -16 15 -19 2 -14 -19 8 -48 -20 -48 -45 0 -28 38 -52 62 -39 25 13 34 38 21 58 -8 13 -4 20 20 34 26 16 29 22 24 52 -4 27 -2 34 14 38 24 6 39 45 28 75 -6 16 -5 22 6 22 20 0 37 36 33 70 -2 20 4 36 21 51 18 17 22 29 18 56 -5 26 -1 39 15 55 16 16 19 29 15 59 -4 29 0 42 14 55 10 9 19 27 19 38 1 19 2 19 11 4 7 -13 5 -22 -11 -38 -21 -21 -26 -55 -10 -80 6 -10 4 -21 -9 -35 -27 -30 -31 -50 -16 -79 8 -14 10 -26 5 -26 -31 0 -55 -79 -30 -95 6 -4 0 -15 -15 -27 -29 -23 -32 -58 -7 -81 23 -21 56 -22 76 -1 19 18 21 60 5 70 -8 4 -2 12 14 21 31 16 45 58 29 84 -10 15 -8 20 9 29 27 15 39 49 27 79 -7 19 -4 28 11 42 27 25 34 54 21 80 -10 17 -8 25 9 43 22 24 29 80 10 91 -7 5 -3 14 9 26 11 10 23 28 27 39 5 16 10 18 20 10 11 -9 9 -16 -11 -35 -27 -27 -31 -62 -11 -89 12 -16 10 -22 -10 -42 -27 -27 -30 -60 -8 -84 14 -16 13 -19 -11 -35 -21 -14 -25 -23 -22 -48 3 -18 8 -39 12 -49 5 -11 1 -18 -13 -23 -24 -7 -38 -51 -24 -73 26 -42 85 -40 105 3 9 19 7 29 -6 49 -21 32 -21 33 9 40 30 8 42 47 26 83 -10 22 -8 27 14 45 29 22 34 68 9 89 -14 11 -13 14 10 26 33 17 44 58 25 92 -13 23 -12 27 8 48 26 25 31 74 9 92 -12 10 -10 16 10 36 13 13 24 33 24 45 0 19 1 19 18 3 18 -17 17 -19 -5 -40 -29 -28 -30 -70 -1 -100 18 -19 19 -23 5 -23 -20 0 -47 -38 -47 -66 0 -11 9 -29 20 -39 l21 -19 -31 -24 c-38 -29 -39 -63 -4 -91 34 -27 50 -26 79 4 31 31 31 49 0 80 -16 17 -20 25 -10 25 24 0 55 38 55 67 0 14 -8 35 -17 46 -14 15 -15 21 -5 24 46 16 58 90 20 117 -12 9 -17 16 -10 16 22 0 52 39 52 68 0 16 -8 37 -18 48 -18 18 -18 19 5 37 29 23 31 79 4 106 -17 17 -17 18 0 29 10 7 22 25 26 40 8 29 8 29 36 12 l28 -18 -24 -6 c-55 -13 -55 -109 1 -123 24 -6 24 -6 -6 -19 -55 -23 -56 -102 -3 -124 30 -12 66 -2 83 24 16 24 8 67 -18 91 -18 17 -22 25 -12 25 24 0 48 34 48 67 0 29 -19 55 -50 66 -13 5 -13 6 1 6 23 1 59 44 59 70 l0 22 26 -20 c35 -27 59 -26 89 4 31 30 32 65 2 93 -44 41 -117 15 -117 -42 l0 -24 -24 21 -24 21 24 19 c16 12 24 29 24 48 l0 29 20 -20 c11 -11 31 -20 45 -20 32 0 75 42 75 73 0 28 -34 67 -58 67 -14 1 -14 2 3 12 31 16 45 39 45 70 l0 29 22 -21 c64 -59 160 38 98 100 -42 42 -120 12 -120 -47 0 -25 -1 -25 -18 -10 -10 10 -25 17 -33 17 -8 0 -3 9 14 23 15 12 28 33 29 48 2 26 3 26 25 12 32 -21 83 -6 102 29 21 38 5 78 -39 100 -19 10 -28 18 -19 18 24 0 49 33 49 64 0 26 1 27 22 12 42 -30 88 -14 107 36 12 32 -5 69 -42 86 -37 18 -85 -7 -93 -48 -6 -26 -8 -28 -30 -18 l-24 11 20 22 c11 12 20 33 20 48 0 27 1 27 24 12 49 -33 111 9 104 69 -4 35 -4 35 14 16 35 -38 109 -19 119 30 12 59 -50 107 -100 79 -14 -8 -31 -29 -36 -46 -8 -25 -14 -30 -25 -23 -8 6 -26 10 -40 11 -15 0 -19 3 -10 6 28 10 49 35 55 65 5 22 10 27 18 19 6 -6 23 -11 38 -11 84 0 100 111 20 141 l-24 10 22 22 c11 13 21 36 21 52 0 23 3 26 12 17 19 -19 76 -14 98 8 44 44 10 120 -54 120 -38 0 -67 -27 -70 -64 0 -14 -2 -26 -2 -26 -1 0 -14 6 -28 14 -22 11 -24 15 -12 25 8 7 17 25 21 39 5 25 9 27 44 24 46 -5 81 26 81 70 0 25 2 27 19 18 34 -18 68 -12 90 16 12 15 21 34 21 44 0 10 -9 29 -21 44 -40 51 -122 23 -122 -42 l0 -28 -33 16 c-32 15 -32 15 -13 36 10 11 19 30 19 41 0 19 5 21 38 16 46 -6 82 23 82 67 0 33 2 35 32 19 27 -14 72 4 86 36 26 57 -34 119 -89 91 -33 -16 -50 -53 -38 -83 l9 -25 -26 21 c-15 12 -34 21 -42 21 -13 0 -13 3 2 19 10 10 18 33 18 49 1 28 3 29 24 20 48 -22 114 34 98 84 -5 17 -3 18 14 9 35 -19 69 -13 91 15 26 34 26 54 0 88 -42 53 -125 19 -117 -49 4 -31 3 -32 -16 -19 -46 32 -116 -3 -116 -57 0 -27 -2 -28 -25 -17 -19 9 -22 14 -15 29 6 10 10 28 10 41 0 21 4 23 39 20 48 -5 81 23 81 67 0 28 1 29 39 24 31 -4 43 -1 60 16 27 27 27 75 1 101 -43 43 -120 11 -120 -49 0 -28 -1 -29 -29 -18 -29 11 -29 12 -15 40 9 16 13 35 10 42 -4 10 3 12 27 8 46 -7 87 27 87 73 0 32 1 33 24 23 18 -9 31 -8 52 2 84 41 30 165 -56 129 -29 -12 -48 -47 -42 -78 2 -9 -5 -11 -25 -6 -36 9 -39 12 -25 26 7 7 12 25 12 41 0 26 3 28 24 23 14 -3 36 -1 50 5 27 13 52 60 43 83 -4 11 2 13 31 9 69 -9 110 69 62 117 -42 42 -120 12 -120 -48 0 -26 -2 -27 -39 -24 -48 5 -81 -23 -81 -68 0 -27 -2 -29 -23 -21 -34 13 -82 -11 -95 -47 -6 -17 -8 -32 -6 -35 3 -2 -14 -4 -36 -4 -46 0 -76 -22 -85 -62 -5 -22 -11 -26 -42 -27 -39 -1 -83 -39 -83 -73 0 -14 -6 -17 -30 -13 -23 3 -36 -3 -60 -26 -16 -17 -30 -38 -30 -46 0 -11 -10 -16 -34 -16 -38 0 -86 -40 -86 -71 0 -15 -8 -19 -35 -19 -30 0 -58 -19 -192 -127 -506 -408 -597 -487 -833 -723 -349 -349 -547 -607 -835 -1090 -161 -270 -195 -321 -264 -394 -77 -81 -151 -116 -248 -116 -101 0 -170 28 -238 95 -76 76 -99 141 -92 260 12 230 160 477 674 1125 649 820 875 1196 959 1595 23 108 23 298 0 389 -65 269 -266 485 -531 573 -72 23 -97 26 -245 28 -91 2 -181 1 -200 -2z m2646 -1345 c-9 -12 -16 -30 -16 -40 0 -12 -8 -18 -21 -18 -15 0 -19 4 -15 16 3 9 9 27 12 40 4 17 13 24 31 24 23 0 23 -1 9 -22z m-133 -111 c-7 -39 -11 -43 -22 -31 -14 15 -1 73 15 67 9 -3 11 -15 7 -36z m-124 -87 c-11 -30 -33 -44 -24 -15 3 8 7 22 10 30 2 8 9 15 14 15 6 0 6 -11 0 -30z m197 -32 c-9 -12 -16 -32 -16 -44 0 -17 -4 -21 -21 -17 -12 4 -18 11 -15 20 4 8 9 26 12 39 4 17 13 24 31 24 23 0 23 -1 9 -22z m-329 -80 c-3 -8 -6 -5 -6 6 -1 11 2 17 5 13 3 -3 4 -12 1 -19z m203 3 c0 -23 -21 -61 -33 -61 -11 0 -12 7 -3 35 10 31 36 50 36 26z m-135 -113 c-8 -35 -12 -44 -19 -37 -7 8 6 69 16 69 6 0 7 -13 3 -32z m191 -40 c-9 -12 -16 -30 -16 -40 0 -20 -8 -22 -29 -9 -9 6 -10 11 -2 15 6 4 11 18 11 32 0 19 5 24 26 24 24 0 24 -1 10 -22z m-126 -72 c0 -1 -5 -17 -11 -35 -12 -35 -35 -43 -25 -8 3 12 6 28 6 35 0 6 7 12 15 12 8 0 15 -2 15 -4z m200 -49 c11 3 11 1 -2 -10 -20 -16 -41 -65 -33 -77 3 -5 -8 -3 -25 3 -26 10 -28 13 -15 27 8 9 15 28 15 43 0 23 3 25 23 18 12 -4 29 -6 37 -4z m-336 -64 c-7 -31 -12 -38 -18 -32 -7 7 6 59 15 59 5 0 6 -12 3 -27z m179 -63 c-10 -25 -20 -37 -29 -33 -16 6 -18 19 -4 28 6 3 10 17 10 30 0 18 4 22 19 18 18 -4 18 -7 4 -43z m-120 -46 c3 -3 2 -14 -3 -23 -5 -9 -11 -24 -14 -34 -3 -10 -10 -16 -15 -13 -4 3 -3 21 3 41 11 35 17 41 29 29z m186 -77 c-10 -10 -22 -29 -25 -42 -7 -27 -12 -29 -31 -17 -10 6 -9 16 4 44 14 31 21 37 44 35 27 -2 27 -2 8 -20z m-329 -52 c0 -8 -4 -15 -10 -15 -5 0 -7 7 -4 15 4 8 8 15 10 15 2 0 4 -7 4 -15z m184 -11 c12 -5 14 -10 6 -20 -6 -7 -14 -24 -18 -38 -5 -19 -11 -23 -22 -16 -12 7 -12 12 -2 22 6 6 12 22 12 35 0 25 1 26 24 17z m-124 -93 c0 -6 -4 -13 -10 -16 -5 -3 -10 -15 -10 -26 0 -11 -4 -18 -9 -14 -12 7 7 65 20 65 5 0 9 -4 9 -9z m170 -78 c-11 -14 -20 -34 -20 -45 0 -16 -3 -17 -21 -8 -19 11 -19 13 -5 29 9 10 16 27 16 38 0 16 5 19 25 15 l25 -4 -20 -25z m-134 -75 c-9 -12 -16 -30 -16 -40 0 -11 -5 -15 -14 -12 -13 5 -13 11 1 40 9 19 23 34 30 34 11 0 11 -4 -1 -22z m197 -49 l22 0 -22 -9 c-25 -10 -43 -39 -43 -70 0 -20 -1 -20 -25 -4 -23 15 -24 19 -12 33 8 9 18 26 22 39 4 15 12 21 22 18 8 -3 24 -6 36 -7z m-335 -36 c-14 -34 -35 -58 -23 -28 4 11 10 28 12 38 3 9 9 17 14 17 5 0 3 -12 -3 -27z m181 -42 c9 -6 10 -10 2 -16 -6 -3 -17 -20 -24 -36 -8 -19 -16 -26 -24 -21 -10 6 -9 16 5 45 18 40 20 41 41 28z m-143 -93 c-9 -12 -16 -31 -16 -42 0 -16 -3 -17 -12 -8 -9 9 -9 15 0 24 7 7 12 20 12 30 0 10 7 18 16 18 14 0 14 -2 0 -22z m187 -56 c5 -2 -1 -11 -12 -19 -12 -8 -21 -22 -21 -32 0 -24 -8 -30 -30 -24 -19 5 -19 6 0 30 11 14 20 34 20 44 0 17 13 18 43 1z m-150 -69 c4 -3 2 -12 -4 -19 -6 -7 -13 -24 -17 -38 -5 -17 -11 -23 -19 -18 -10 6 -8 16 5 45 17 37 23 42 35 30z m-133 -82 c0 -6 -4 -13 -10 -16 -5 -3 -10 1 -10 9 0 9 5 16 10 16 6 0 10 -4 10 -9z m-27 -46 c-3 -9 -8 -14 -10 -11 -3 3 -2 9 2 15 9 16 15 13 8 -4z m197 -26 c0 -4 -5 -11 -11 -15 -6 -3 -16 -19 -23 -35 -9 -20 -15 -25 -26 -19 -12 7 -12 12 3 28 9 10 17 28 17 39 0 16 5 20 20 16 11 -3 20 -9 20 -14z m-145 -68 c3 -5 0 -13 -5 -16 -6 -4 -15 -18 -21 -32 -5 -13 -14 -21 -20 -18 -7 5 -5 13 5 24 9 10 16 25 16 34 0 18 15 23 25 8z m156 -72 c20 -10 20 -11 3 -24 -10 -7 -23 -26 -29 -43 -9 -27 -12 -29 -28 -17 -18 13 -18 14 2 34 12 12 21 30 21 41 0 23 4 24 31 9z m-131 -80 c0 -5 -4 -9 -9 -9 -5 0 -14 -13 -21 -29 -7 -19 -17 -28 -26 -24 -11 4 -10 10 6 30 11 14 20 32 20 39 0 8 6 11 15 8 8 -4 15 -10 15 -15z m-145 -58 c3 -5 1 -12 -5 -16 -5 -3 -10 1 -10 9 0 18 6 21 15 7z m-33 -63 c-7 -7 -12 -8 -12 -2 0 14 12 26 19 19 2 -3 -1 -11 -7 -17z m182 -41 c-14 -10 -24 -29 -24 -43 0 -21 -2 -23 -19 -12 -19 12 -19 12 0 36 10 14 19 33 19 42 0 16 3 16 24 7 l23 -11 -23 -19z m-147 -65 c-9 -10 -17 -26 -17 -35 0 -9 -4 -17 -8 -17 -20 0 -20 14 -2 38 11 13 20 32 20 40 0 12 3 13 12 4 9 -9 8 -16 -5 -30z m184 -63 c11 0 11 -2 -1 -6 -31 -11 -50 -37 -50 -67 l0 -30 -22 22 -22 22 22 23 c12 13 22 34 22 47 0 22 1 22 18 7 10 -10 25 -17 33 -18z m-159 -55 c3 -3 -5 -16 -18 -29 -13 -13 -24 -32 -24 -42 0 -13 -3 -14 -12 -5 -9 9 -8 16 5 30 9 10 17 26 17 35 0 16 20 23 32 11z m-7 -166 c-14 -11 -25 -30 -25 -44 0 -22 -2 -23 -20 -12 -19 12 -19 13 -1 33 10 11 21 28 24 37 4 11 13 15 26 11 20 -5 20 -6 -4 -25z m-135 -33 c0 -11 -48 -74 -53 -69 -6 7 35 73 46 74 4 0 7 -2 7 -5z m0 -141 c0 -2 -9 -13 -20 -24 -11 -11 -20 -30 -20 -41 0 -18 -2 -19 -15 -9 -14 12 -13 15 5 35 11 12 20 29 20 38 0 10 5 14 15 11 8 -4 15 -8 15 -10z m-150 -54 c0 -5 -5 -10 -11 -10 -5 0 -7 5 -4 10 3 6 8 10 11 10 2 0 4 -4 4 -10z m125 -110 c-14 -14 -25 -37 -25 -50 0 -23 -1 -23 -14 -5 -12 17 -12 22 5 44 10 13 19 32 19 42 0 17 3 17 20 7 19 -12 19 -13 -5 -38z m-135 -19 c0 -6 -4 -13 -10 -16 -5 -3 -10 1 -10 9 0 9 5 16 10 16 6 0 10 -4 10 -9z m-37 -56 c-3 -9 -8 -14 -10 -11 -3 3 -2 9 2 15 9 16 15 13 8 -4z m7 -100 c-11 -12 -20 -32 -20 -46 -1 -21 -2 -22 -11 -6 -8 13 -5 24 10 44 12 14 21 33 21 42 0 14 2 14 10 1 6 -10 3 -21 -10 -35z m-150 -139 c0 -3 -4 -8 -10 -11 -5 -3 -10 -1 -10 4 0 6 5 11 10 11 6 0 10 -2 10 -4z m-37 -56 c-3 -12 -8 -19 -11 -16 -5 6 5 36 12 36 2 0 2 -9 -1 -20z m-171 -212 c-7 -7 -12 -8 -12 -2 0 14 12 26 19 19 2 -3 -1 -11 -7 -17z m-545 -330 c-3 -7 -5 -2 -5 12 0 14 2 19 5 13 2 -7 2 -19 0 -25z m-190 -80 c-3 -8 -6 -5 -6 6 -1 11 2 17 5 13 3 -3 4 -12 1 -19z"/>

        <path d="M10832 8303 c2 -10 10 -18 18 -18 8 0 16 8 18 18 2 12 -3 17 -18 17 -15 0 -20 -5 -18 -17z"/><path d="M10517 8293 c-12 -11 -8 -40 7 -52 28 -23 68 17 45 45 -12 15 -41 19 -52 7z"/>
        <path d="M11045 8231 c-3 -5 -1 -12 5 -16 5 -3 10 1 10 9 0 18 -6 21 -15 7z"/>
        <path d="M10727 8223 c-11 -10 -8 -41 4 -49 6 -3 18 1 27 9 13 13 13 19 2 31 -14 17 -23 20 -33 9z"/>
        <path d="M10404 8186 c-12 -31 0 -51 31 -51 27 0 30 3 30 30 0 25 -4 30 -28 33 -17 2 -29 -2 -33 -12z"/>
        <path d="M10932 8126 c1 -10 8 -17 13 -17 15 1 12 24 -3 29 -9 3 -13 -2 -10 -12z"/>
        <path d="M10610 8115 c-18 -21 -5 -47 22 -43 26 3 37 36 16 49 -18 12 -24 11 -38 -6z"/>
        <path d="M10301 8094 c-35 -25 -21 -74 20 -74 26 0 50 39 39 60 -14 26 -35 30 -59 14z"/>
        <path d="M10817 8033 c-14 -13 -6 -33 13 -33 13 0 20 7 20 20 0 19 -20 27 -33 13z"/>
        <path d="M10497 8024 c-13 -13 -7 -52 8 -58 27 -10 46 5 43 33 -3 26 -35 41 -51 25z"/>
        <path d="M10176 7989 c-21 -31 -6 -63 32 -67 42 -4 61 28 37 64 -19 30 -49 31 -69 3z"/>
        <path d="M10700 7934 c-11 -12 -10 -18 3 -32 16 -15 18 -15 34 0 13 14 14 20 3 32 -7 9 -16 16 -20 16 -4 0 -13 -7 -20 -16z"/>
        <path d="M10382 7928 c-28 -28 -1 -75 38 -63 33 11 21 75 -15 75 -6 0 -16 -5 -23 -12z"/>
        <path d="M11020 7930 c0 -5 5 -10 10 -10 6 0 10 5 10 10 0 6 -4 10 -10 10 -5 0 -10 -4 -10 -10z"/>
        <path d="M10062 7898 c-32 -32 5 -92 49 -81 29 8 44 45 30 72 -13 23 -59 29 -79 9z"/>
        <path d="M10580 7835 c-10 -12 -10 -18 0 -30 7 -8 18 -15 25 -15 7 0 18 7 25 15 10 12 10 18 0 30 -7 8 -18 15 -25 15 -7 0 -18 -7 -25 -15z"/>
        <path d="M10905 7840 c-11 -17 5 -32 21 -19 7 6 11 15 8 20 -7 12 -21 11 -29 -1z"/>
        <path d="M10262 7828 c-29 -29 -3 -72 40 -66 19 2 23 9 23 38 0 30 -4 35 -25 38 -14 2 -31 -3 -38 -10z"/>
        <path d="M9947 7802 c-24 -27 -21 -59 8 -78 51 -33 104 21 71 71 -20 30 -56 33 -79 7z"/>
        <path d="M10461 7742 c-13 -25 8 -56 35 -50 29 5 27 62 -3 66 -13 2 -26 -4 -32 -16z"/>
        <path d="M10783 7744 c-9 -23 13 -40 32 -24 12 10 13 16 4 26 -15 18 -28 18 -36 -2z"/>
        <path d="M10142 7738 c-7 -7 -12 -21 -12 -33 0 -12 5 -26 12 -33 7 -7 21 -12 33 -12 12 0 26 5 33 12 7 7 12 21 12 33 0 12 -5 26 -12 33 -7 7 -21 12 -33 12 -12 0 -26 -5 -33 -12z"/>
        <path d="M9831 7711 c-12 -12 -21 -30 -21 -41 0 -28 37 -62 62 -58 12 2 30 15 41 31 l21 27 -21 28 c-25 34 -56 39 -82 13z"/>
        <path d="M10346 7655 c-9 -9 -16 -20 -16 -25 0 -15 32 -41 48 -38 24 5 39 35 26 56 -15 23 -38 26 -58 7z"/>
        <path d="M10672 7661 c-20 -12 -10 -46 13 -46 14 0 20 7 20 24 0 27 -13 35 -33 22z"/>
        <path d="M10026 7644 c-9 -8 -16 -24 -16 -34 0 -10 7 -26 16 -34 8 -9 24 -16 34 -16 10 0 26 7 34 16 9 8 16 24 16 34 0 10 -7 26 -16 34 -8 9 -24 16 -34 16 -10 0 -26 -7 -34 -16z"/>
        <path d="M10990 7640 c0 -5 5 -10 10 -10 6 0 10 5 10 10 0 6 -4 10 -10 10 -5 0 -10 -4 -10 -10z"/>
        <path d="M9717 7619 c-30 -23 -35 -59 -12 -83 43 -43 105 -20 105 38 0 55 -50 80 -93 45z"/>
        <path d="M10226 7564 c-9 -8 -16 -21 -16 -28 0 -15 32 -46 47 -46 13 0 43 33 43 48 0 15 -29 42 -45 42 -7 0 -21 -7 -29 -16z"/>
        <path d="M10553 7573 c-17 -6 -16 -38 0 -52 21 -17 56 12 41 35 -12 20 -23 25 -41 17z"/>
        <path d="M9907 7552 c-23 -25 -21 -55 3 -77 25 -23 67 -13 82 20 24 53 -46 100 -85 57z"/>
        <path d="M10872 7544 c4 -21 22 -23 26 -1 2 10 -3 17 -13 17 -10 0 -15 -6 -13 -16z"/>
        <path d="M9620 7542 c-69 -22 -65 -104 6 -126 30 -9 74 28 74 63 0 39 -45 75 -80 63z"/>
        <path d="M10102 7478 c-7 -7 -12 -21 -12 -33 0 -12 5 -26 12 -33 7 -7 21 -12 33 -12 12 0 26 5 33 12 7 7 12 21 12 33 0 12 -5 26 -12 33 -7 7 -21 12 -33 12 -12 0 -26 -5 -33 -12z"/>
        <path d="M10421 7472 c-12 -23 4 -52 29 -52 25 0 41 30 29 53 -13 22 -46 22 -58 -1z"/>
        <path d="M9787 7462 c-26 -28 -21 -69 9 -89 24 -15 29 -15 53 -2 16 9 27 25 29 43 7 55 -56 87 -91 48z"/>
        <path d="M10751 7466 c-14 -17 -7 -36 14 -36 22 0 29 20 13 36 -13 13 -16 13 -27 0z"/>
        <path d="M9470 7430 c-41 -41 -10 -110 48 -110 33 0 45 8 61 38 34 65 -56 125 -109 72z"/>
        <path d="M9981 7386 c-21 -26 -10 -69 22 -80 23 -8 31 -6 49 12 18 18 20 26 12 49 -7 21 -17 29 -40 31 -18 2 -36 -3 -43 -12z"/>
        <path d="M10302 7388 c-32 -32 8 -80 48 -58 34 18 19 70 -20 70 -9 0 -21 -5 -28 -12z"/>
        <path d="M9674 7382 c-24 -16 -35 -51 -23 -74 16 -30 28 -38 61 -38 29 0 58 31 58 62 0 40 -63 73 -96 50z"/>
        <path d="M10624 7376 c-9 -24 4 -48 23 -44 12 2 18 12 18 28 0 29 -32 41 -41 16z"/>
        <path d="M10950 7345 c0 -9 5 -15 11 -13 6 2 11 8 11 13 0 5 -5 11 -11 13 -6 2 -11 -4 -11 -13z"/>
        <path d="M9860 7300 c-11 -11 -20 -28 -20 -38 0 -41 69 -69 98 -40 20 20 14 65 -10 82 -30 21 -44 20 -68 -4z"/>
        <path d="M10180 7306 c-28 -35 11 -93 48 -70 35 22 22 84 -18 84 -10 0 -23 -7 -30 -14z"/>
        <path d="M9536 7278 c-23 -33 -19 -64 10 -87 33 -26 58 -27 84 -1 25 25 26 72 2 93 -27 25 -78 22 -96 -5z"/>
        <path d="M10495 7290 c-11 -17 5 -50 24 -50 24 0 43 23 35 44 -7 18 -49 22 -59 6z"/>
        <path d="M10827 7274 c-14 -15 -6 -34 14 -34 14 0 19 5 17 17 -3 18 -20 27 -31 17z"/>
        <path d="M9737 7212 c-20 -22 -22 -65 -4 -80 43 -34 100 -10 100 43 0 50 -63 74 -96 37z"/>
        <path d="M10052 7218 c-29 -29 -7 -78 34 -78 42 0 63 59 30 82 -17 12 -51 9 -64 -4z"/>
        <path d="M9450 7213 c-51 -19 -66 -77 -29 -114 28 -28 76 -22 102 13 17 23 18 31 8 56 -10 23 -51 56 -64 51 -1 0 -9 -3 -17 -6z"/>
        <path d="M10371 7201 c-13 -24 8 -55 34 -50 28 6 42 34 26 53 -18 22 -48 20 -60 -3z"/>
        <path d="M10694 7179 c-8 -14 21 -43 35 -35 19 12 13 46 -8 46 -11 0 -23 -5 -27 -11z"/>
        <path d="M9632 7139 c-12 -5 -27 -20 -34 -34 -10 -22 -8 -30 9 -53 27 -37 69 -36 97 1 19 26 19 30 6 54 -18 31 -47 43 -78 32z"/>
        <path d="M9926 7127 c-20 -29 -10 -66 19 -73 56 -14 90 27 61 71 -21 32 -60 33 -80 2z"/>
        <path d="M10251 7126 c-8 -10 -11 -26 -7 -42 5 -20 12 -25 33 -22 14 2 31 11 37 21 23 36 -36 76 -63 43z"/>
        <path d="M10567 7096 c-8 -20 19 -47 39 -39 22 8 13 47 -12 51 -12 2 -24 -4 -27 -12z"/>
        <path d="M9812 7054 c-24 -17 -30 -62 -10 -82 17 -17 64 -15 82 4 22 21 20 50 -4 74 -24 24 -38 25 -68 4z"/>
        <path d="M10895 7060 c-3 -6 1 -13 10 -16 19 -8 30 0 20 15 -8 14 -22 14 -30 1z"/>
        <path d="M5360 7047 c-22 -11 -30 -31 -62 -157 -45 -181 -77 -263 -182 -465 -101 -193 -107 -215 -72 -250 42 -42 62 -33 156 63 105 107 450 539 450 564 0 18 -66 69 -103 79 -58 17 -84 43 -97 100 -7 29 -21 55 -33 64 -26 18 -26 18 -57 2z"/>
        <path d="M9487 7042 c-22 -25 -21 -75 1 -95 41 -37 112 -6 112 48 0 55 -77 87 -113 47z"/>
        <path d="M10126 7044 c-30 -30 -13 -74 29 -74 42 0 59 44 29 74 -8 9 -22 16 -29 16 -7 0 -21 -7 -29 -16z"/>
        <path d="M10444 7016 c-10 -26 4 -48 28 -44 17 2 23 10 23 28 0 18 -6 26 -23 28 -13 2 -25 -3 -28 -12z"/>
        <path d="M10765 6980 c-4 -7 -3 -16 3 -22 14 -14 45 -2 40 15 -6 16 -34 21 -43 7z"/>
        <path d="M9381 6967 c-14 -6 -29 -25 -34 -41 -21 -62 66 -113 112 -67 54 54 -10 143 -78 108z"/>
        <path d="M9676 6964 c-35 -35 -6 -94 46 -94 29 0 58 28 58 57 0 45 -71 71 -104 37z"/>
        <path d="M9995 6960 c-35 -39 3 -91 55 -75 28 9 37 51 15 75 -10 11 -26 20 -35 20 -9 0 -25 -9 -35 -20z"/>
        <path d="M10314 6936 c-12 -31 0 -51 31 -51 27 0 30 3 30 30 0 25 -4 30 -28 33 -17 2 -29 -2 -33 -12z"/>
        <path d="M10640 6904 c-11 -12 -10 -18 3 -32 16 -15 18 -15 34 0 13 14 14 20 3 32 -7 9 -16 16 -20 16 -4 0 -13 -7 -20 -16z"/>
        <path d="M9546 6878 c-9 -12 -16 -29 -16 -38 0 -9 7 -26 16 -38 23 -34 83 -27 104 11 13 24 13 30 0 55 -21 37 -81 44 -104 10z"/>
        <path d="M9870 6880 c-11 -11 -20 -27 -20 -35 0 -8 9 -24 20 -35 11 -11 27 -20 35 -20 8 0 24 9 35 20 11 11 20 27 20 35 0 8 -9 24 -20 35 -11 11 -27 20 -35 20 -8 0 -24 -9 -35 -20z"/>
        <path d="M10198 6869 c-22 -12 -23 -52 -3 -69 12 -10 21 -10 40 -2 29 13 33 43 9 66 -18 19 -23 19 -46 5z"/>
        <path d="M10967 6854 c-8 -8 1 -24 14 -24 5 0 9 7 9 15 0 15 -12 20 -23 9z"/>
        <path d="M10510 6826 c-18 -22 -5 -48 22 -44 17 2 23 10 23 28 0 29 -26 38 -45 16z"/>
        <path d="M9425 6800 c-38 -42 -9 -110 47 -110 35 0 68 32 68 65 0 56 -77 86 -115 45z"/>
        <path d="M9740 6800 c-24 -24 -25 -38 -4 -68 29 -42 104 -17 104 35 0 20 -38 53 -60 53 -11 0 -29 -9 -40 -20z"/>
        <path d="M10056 6779 c-15 -22 -11 -48 8 -61 21 -14 55 -8 66 11 14 27 13 37 -6 55 -22 22 -50 20 -68 -5z"/>
        <path d="M10834 6779 c-10 -17 13 -36 27 -22 12 12 4 33 -11 33 -5 0 -12 -5 -16 -11z"/>
        <path d="M10377 6754 c-13 -14 -7 -43 12 -53 24 -13 55 8 50 35 -4 19 -48 32 -62 18z"/>
        <path d="M9624 6732 c-37 -24 -36 -91 1 -106 47 -17 85 6 85 53 0 45 -51 77 -86 53z"/>
        <path d="M9925 6696 c-13 -19 -14 -29 -6 -45 25 -45 91 -33 91 17 0 54 -56 72 -85 28z"/>
        <path d="M10700 6690 c0 -16 5 -21 23 -18 12 2 22 10 22 18 0 8 -10 16 -22 18 -18 3 -23 -2 -23 -18z"/>
        <path d="M10252 6678 c-28 -28 -1 -75 37 -63 25 8 34 31 21 56 -12 21 -40 25 -58 7z"/>
        <path d="M9488 6643 c-26 -31 -28 -41 -18 -67 12 -34 53 -50 83 -35 29 16 37 28 37 60 0 51 -69 79 -102 42z"/>
        <path d="M9800 6630 c-24 -24 -25 -38 -4 -68 18 -27 55 -29 77 -4 22 24 21 55 -1 75 -25 22 -48 21 -72 -3z"/>
        <path d="M10566 6624 c-4 -10 -2 -22 3 -27 15 -15 46 -3 46 18 0 26 -40 33 -49 9z"/>
        <path d="M11030 6629 c0 -5 5 -7 10 -4 6 3 10 8 10 11 0 2 -4 4 -10 4 -5 0 -10 -5 -10 -11z"/>
        <path d="M10116 6598 c-13 -19 -14 -25 -2 -43 7 -11 21 -21 30 -23 42 -9 64 58 27 78 -28 15 -38 13 -55 -12z"/>
        <path d="M9351 6553 c-51 -64 43 -141 99 -81 25 28 26 62 0 88 -29 29 -74 26 -99 -7z"/>
        <path d="M10894 6569 c-8 -14 11 -33 25 -25 6 4 11 11 11 16 0 13 -29 20 -36 9z"/>
        <path d="M9667 6552 c-22 -25 -21 -55 2 -76 27 -25 72 -17 90 15 13 24 13 29 -2 53 -21 31 -66 35 -90 8z"/>
        <path d="M10434 6556 c-10 -26 4 -46 31 -46 23 0 26 4 23 28 -3 31 -44 45 -54 18z"/>
        <path d="M9982 6528 c-27 -27 -1 -78 38 -78 29 0 54 43 40 69 -12 24 -58 29 -78 9z"/>
        <path d="M10763 6494 c-8 -21 13 -42 28 -27 13 13 5 43 -11 43 -6 0 -13 -7 -17 -16z"/>
        <path d="M9553 6490 c-45 -18 -41 -92 6 -108 64 -22 109 50 61 98 -22 22 -33 23 -67 10z"/>
        <path d="M10301 6481 c-13 -24 8 -55 34 -50 28 6 42 34 26 53 -18 22 -48 20 -60 -3z"/>
        <path d="M9852 6458 c-20 -20 -15 -66 9 -78 30 -17 68 -4 75 24 9 36 -12 66 -44 66 -16 0 -33 -5 -40 -12z"/>
        <path d="M10624 6426 c-8 -21 3 -36 27 -36 15 0 20 6 17 22 -4 27 -35 37 -44 14z"/>
        <path d="M10170 6415 c-26 -32 13 -81 48 -59 34 22 22 74 -18 74 -10 0 -23 -7 -30 -15z"/>
        <path d="M9407 6402 c-34 -38 -15 -95 35 -107 21 -5 33 -1 52 19 15 14 26 34 26 46 0 50 -79 80 -113 42z"/>
        <path d="M9716 6378 c-21 -30 -20 -44 4 -68 24 -24 53 -26 74 -4 19 18 21 65 4 82 -20 20 -65 14 -82 -10z"/>
        <path d="M10492 6357 c-9 -10 -8 -18 2 -32 18 -25 48 -13 44 17 -4 27 -30 35 -46 15z"/>
        <path d="M10044 6352 c-19 -13 -23 -39 -8 -61 26 -36 74 -21 74 24 0 36 -37 57 -66 37z"/>
        <path d="M10950 6345 c0 -9 5 -15 11 -13 6 2 11 8 11 13 0 5 -5 11 -11 13 -6 2 -11 -4 -11 -13z"/>
        <path d="M9295 6338 c-27 -15 -35 -28 -35 -60 0 -35 32 -68 65 -68 61 0 87 81 39 119 -30 24 -41 25 -69 9z"/>
        <path d="M9590 6310 c-11 -11 -20 -29 -20 -40 0 -11 9 -29 20 -40 11 -11 29 -20 40 -20 11 0 29 9 40 20 11 11 20 29 20 40 0 11 -9 29 -20 40 -11 11 -29 20 -40 20 -11 0 -29 -9 -40 -20z"/>
        <path d="M10354 6285 c-9 -23 3 -45 24 -45 25 0 44 23 36 44 -8 20 -53 21 -60 1z"/>
        <path d="M9902 6278 c-7 -7 -12 -21 -12 -33 0 -29 19 -45 52 -45 25 0 48 23 48 49 0 33 -63 54 -88 29z"/>
        <path d="M10812 6278 c7 -19 38 -22 38 -4 0 10 -9 16 -21 16 -12 0 -19 -5 -17 -12z"/>
        <path d="M9463 6245 c-47 -33 -19 -115 39 -115 25 0 58 36 58 63 0 51 -56 81 -97 52z"/>
        <path d="M10222 6228 c-18 -18 -14 -46 7 -58 38 -20 71 13 51 51 -12 21 -40 25 -58 7z"/>
        <path d="M9783 6219 c-31 -11 -40 -54 -18 -79 23 -26 57 -25 80 0 36 40 -10 99 -62 79z"/>
        <path d="M10674 6219 c-3 -6 0 -17 7 -25 18 -17 44 -2 36 20 -7 18 -33 21 -43 5z"/>
        <path d="M9342 6180 c-53 -22 -51 -99 3 -120 30 -11 69 1 79 25 24 63 -23 118 -82 95z"/>
        <path d="M10089 6161 c-21 -16 -22 -22 -11 -45 15 -33 56 -36 72 -5 14 25 8 44 -19 58 -15 8 -24 7 -42 -8z"/>
        <path d="M10540 6154 c-11 -12 -10 -18 3 -32 16 -15 18 -15 33 0 19 18 12 48 -9 48 -8 0 -20 -7 -27 -16z"/>
        <path d="M9642 6144 c-51 -35 -8 -117 50 -95 42 16 50 59 18 91 -24 24 -38 25 -68 4z"/>
        <path d="M11000 6130 c0 -5 5 -10 10 -10 6 0 10 5 10 10 0 6 -4 10 -10 10 -5 0 -10 -4 -10 -10z"/>
        <path d="M9186 6088 c-34 -48 -7 -108 47 -108 38 0 50 7 66 38 23 44 -10 92 -64 92 -24 0 -39 -7 -49 -22z"/>
        <path d="M9946 6089 c-21 -30 -6 -63 30 -67 45 -6 70 41 38 72 -22 22 -50 20 -68 -5z"/>
        <path d="M10407 6095 c-18 -18 -13 -40 11 -50 23 -9 49 21 36 42 -15 24 -29 26 -47 8z"/>
        <path d="M9500 6070 c-24 -24 -25 -48 -4 -78 19 -27 64 -29 87 -4 24 26 21 68 -5 86 -30 21 -54 20 -78 -4z"/>
        <path d="M10867 6073 c-12 -11 -8 -23 8 -23 8 0 15 7 15 15 0 16 -12 20 -23 8z"/>
        <path d="M9821 6033 c-42 -29 -9 -99 40 -86 28 8 44 45 30 70 -14 27 -45 34 -70 16z"/>
        <path d="M10267 6033 c-13 -12 -7 -51 8 -57 32 -12 61 17 49 49 -6 15 -45 21 -57 8z"/>
        <path d="M9368 6003 c-34 -40 -26 -87 17 -103 44 -17 85 13 85 61 0 51 -69 79 -102 42z"/>
        <path d="M10727 6014 c-14 -14 -7 -35 11 -32 9 2 17 10 17 17 0 16 -18 25 -28 15z"/>
        <path d="M9676 5964 c-40 -40 7 -109 59 -86 32 15 41 47 21 77 -19 29 -57 33 -80 9z"/>
        <path d="M10127 5973 c-14 -14 -6 -53 13 -63 15 -8 24 -6 40 10 16 16 18 25 10 40 -10 19 -49 27 -63 13z"/>
        <path d="M10582 5938 c4 -30 43 -33 43 -3 0 13 -8 21 -23 23 -20 3 -23 0 -20 -20z"/>
        <path d="M9230 5930 c-41 -41 -10 -110 48 -110 36 0 62 28 62 67 0 57 -69 84 -110 43z"/>
        <path d="M9540 5900 c-11 -11 -20 -29 -20 -40 0 -11 9 -29 20 -40 11 -11 29 -20 40 -20 11 0 29 9 40 20 11 11 20 29 20 40 0 11 -9 29 -20 40 -11 11 -29 20 -40 20 -11 0 -29 -9 -40 -20z"/>
        <path d="M9984 5906 c-3 -8 -4 -25 -2 -38 2 -19 9 -23 38 -23 33 0 35 2 35 35 0 32 -3 35 -33 38 -21 2 -34 -2 -38 -12z"/>
        <path d="M10440 5876 c0 -29 24 -40 44 -20 20 20 9 44 -20 44 -19 0 -24 -5 -24 -24z"/>
        <path d="M9119 5876 c-54 -26 -55 -101 -2 -125 53 -24 114 29 94 82 -16 42 -56 61 -92 43z"/>
        <path d="M9852 5848 c-7 -7 -12 -21 -12 -33 0 -12 5 -26 12 -33 7 -7 21 -12 33 -12 12 0 26 5 33 12 7 7 12 21 12 33 0 12 -5 26 -12 33 -7 7 -21 12 -33 12 -12 0 -26 -5 -33 -12z"/>
        <path d="M10905 5851 c-6 -11 9 -23 19 -14 9 9 7 23 -3 23 -6 0 -12 -4 -16 -9z"/>
        <path d="M9403 5838 c-23 -28 -23 -55 -2 -81 31 -40 74 -35 98 11 19 37 -5 76 -50 80 -21 2 -40 -2 -46 -10z"/>
        <path d="M10306 5835 c-20 -21 -5 -55 25 -55 24 0 36 27 22 48 -14 23 -29 25 -47 7z"/>
        <path d="M10767 5803 c-4 -3 -7 -12 -7 -20 0 -15 26 -18 34 -4 7 11 -18 33 -27 24z"/>
        <path d="M9711 5786 c-16 -19 -10 -66 10 -79 44 -28 95 25 69 72 -13 25 -61 29 -79 7z"/>
        <path d="M9272 5774 c-15 -10 -22 -25 -22 -48 0 -64 70 -90 109 -39 24 30 20 58 -11 86 -25 21 -47 22 -76 1z"/>
        <path d="M10160 5769 c-9 -15 -8 -24 1 -35 18 -21 57 -18 64 6 14 44 -44 69 -65 29z"/>
        <path d="M10620 5730 c0 -13 7 -20 20 -20 13 0 20 7 20 20 0 13 -7 20 -20 20 -13 0 -20 -7 -20 -20z"/>
        <path d="M9572 5728 c-18 -18 -14 -63 8 -83 45 -41 110 18 76 70 -18 27 -63 34 -84 13z"/>
        <path d="M10020 5715 c-10 -12 -10 -21 -2 -40 16 -35 61 -32 74 5 14 41 -44 69 -72 35z"/>
        <path d="M9127 5702 c-38 -42 -8 -112 47 -112 39 0 69 28 69 65 0 57 -79 88 -116 47z"/>
        <path d="M10480 5684 c-11 -12 -10 -18 3 -32 15 -15 19 -15 32 -1 17 17 11 49 -10 49 -7 0 -18 -7 -25 -16z"/>
        <path d="M9436 5664 c-34 -33 -6 -104 40 -104 25 0 57 37 57 65 0 49 -63 74 -97 39z"/>
        <path d="M9886 5664 c-30 -30 -13 -74 29 -74 44 0 63 60 26 80 -27 14 -37 13 -55 -6z"/>
        <path d="M10342 5638 c-16 -16 -15 -33 4 -48 22 -19 54 12 38 37 -14 22 -27 26 -42 11z"/>
        <path d="M10940 5630 c0 -5 5 -10 10 -10 6 0 10 5 10 10 0 6 -4 10 -10 10 -5 0 -10 -4 -10 -10z"/>
        <path d="M9297 5602 c-37 -41 -11 -102 43 -102 36 0 60 23 60 59 0 54 -68 82 -103 43z"/>
        <path d="M9742 5608 c-28 -28 -3 -88 37 -88 22 0 51 30 51 53 0 38 -61 62 -88 35z"/>
        <path d="M10197 5583 c-12 -11 -8 -40 7 -52 26 -22 63 10 50 44 -6 15 -45 21 -57 8z"/>
        <path d="M10795 5581 c-7 -12 12 -24 25 -16 11 7 4 25 -10 25 -5 0 -11 -4 -15 -9z"/>
        <path d="M9612 5554 c-24 -17 -30 -62 -10 -82 7 -7 24 -12 38 -12 33 0 50 17 50 51 0 24 -30 59 -50 59 -3 0 -16 -7 -28 -16z"/>
        <path d="M9160 5540 c-43 -43 -14 -110 48 -110 56 0 82 70 42 110 -11 11 -31 20 -45 20 -14 0 -34 -9 -45 -20z"/>
        <path d="M10050 5525 c-14 -17 -5 -51 16 -59 24 -9 54 12 54 38 0 35 -47 49 -70 21z"/>
        <path d="M10657 5534 c-14 -14 -7 -35 11 -32 9 2 17 10 17 17 0 16 -18 25 -28 15z"/>
        <path d="M9467 5492 c-21 -23 -22 -66 -2 -82 8 -7 27 -12 42 -12 50 0 72 67 31 96 -29 21 -51 20 -71 -2z"/>
        <path d="M9026 5479 c-33 -26 -34 -68 -3 -97 32 -30 71 -28 96 4 27 35 26 59 -4 89 -30 30 -54 31 -89 4z"/>
        <path d="M9912 5478 c-21 -21 -14 -57 14 -70 23 -11 29 -10 45 10 35 44 -20 99 -59 60z"/>
        <path d="M10504 5479 c-8 -14 21 -43 35 -35 19 12 13 46 -8 46 -11 0 -23 -5 -27 -11z"/>
        <path d="M9334 5442 c-6 -4 -17 -18 -24 -31 -10 -20 -9 -27 8 -50 13 -17 29 -26 47 -26 18 0 34 9 47 26 17 23 18 30 8 50 -16 29 -29 39 -55 39 -11 0 -25 -4 -31 -8z"/>
        <path d="M9778 5429 c-28 -16 -23 -67 7 -81 46 -21 86 40 49 76 -18 18 -32 20 -56 5z"/>
        <path d="M10364 5425 c-8 -19 3 -35 26 -35 19 0 30 17 23 38 -6 17 -42 15 -49 -3z"/>
        <path d="M10225 5386 c-20 -15 -15 -43 10 -52 18 -7 45 12 45 32 0 22 -35 35 -55 20z"/>
        <path d="M9180 5374 c-20 -23 -16 -75 5 -90 26 -20 69 -17 88 4 22 24 21 65 -1 85 -23 21 -75 22 -92 1z"/>
        <path d="M9630 5370 c-11 -11 -20 -27 -20 -35 0 -8 9 -24 20 -35 31 -31 57 -25 79 18 10 19 8 26 -13 47 -30 30 -40 31 -66 5z"/>
        <path d="M10826 5361 c-4 -5 -2 -12 3 -15 5 -4 12 -2 15 3 4 5 2 12 -3 15 -5 4 -12 2 -15 -3z"/>
        <path d="M10082 5338 c-30 -30 3 -77 40 -57 30 16 16 69 -17 69 -6 0 -16 -5 -23 -12z"/>
        <path d="M9062 5330 c-20 -9 -42 -45 -42 -71 0 -18 49 -59 70 -59 26 0 70 43 70 68 0 44 -55 79 -98 62z"/>
        <path d="M9486 5314 c-41 -40 4 -105 57 -85 16 6 29 21 33 36 13 50 -53 86 -90 49z"/>
        <path d="M10686 5323 c-12 -12 -6 -33 9 -33 8 0 15 6 15 14 0 17 -14 28 -24 19z"/>
        <path d="M9928 5275 c-14 -32 5 -57 41 -53 20 2 27 9 29 32 6 48 -50 65 -70 21z"/>
        <path d="M8912 5263 c-32 -27 -37 -64 -12 -96 41 -52 120 -27 120 39 0 35 -8 47 -37 63 -30 15 -47 14 -71 -6z"/>
        <path d="M9347 5262 c-26 -28 -21 -69 9 -89 24 -15 29 -15 53 -2 16 9 27 25 29 43 7 55 -56 87 -91 48z"/>
        <path d="M10530 5260 c0 -13 7 -20 20 -20 13 0 20 7 20 20 0 13 -7 20 -20 20 -13 0 -20 -7 -20 -20z"/>
        <path d="M9792 5238 c-21 -21 -14 -57 13 -70 22 -10 29 -9 47 10 19 18 20 25 10 47 -13 27 -49 34 -70 13z"/>
        <path d="M10384 5226 c-8 -21 3 -36 27 -36 15 0 20 6 17 22 -4 27 -35 37 -44 14z"/>
        <path d="M9210 5212 c-14 -11 -22 -29 -22 -47 0 -30 32 -65 59 -65 19 0 63 45 63 65 0 20 -44 65 -63 65 -8 0 -25 -8 -37 -18z"/>
        <path d="M9639 5179 c-17 -33 3 -69 39 -69 33 0 52 16 52 45 0 29 -19 45 -52 45 -18 0 -31 -7 -39 -21z"/>
        <path d="M10246 5184 c-17 -16 -12 -40 9 -48 19 -7 46 20 39 39 -8 21 -32 26 -48 9z"/>
        <path d="M9054 5146 c-21 -33 -15 -65 17 -89 43 -31 99 -2 99 52 0 59 -84 85 -116 37z"/>
        <path d="M9512 5144 c-39 -27 -19 -94 28 -94 47 0 67 67 28 94 -12 9 -25 16 -28 16 -3 0 -16 -7 -28 -16z"/>
        <path d="M10097 5143 c-12 -11 -8 -40 7 -52 28 -23 68 17 45 45 -12 15 -41 19 -52 7z"/>
        <path d="M10845 5140 c-3 -5 -1 -10 4 -10 6 0 11 5 11 10 0 6 -2 10 -4 10 -3 0 -8 -4 -11 -10z"/>
        <path d="M8926 5099 c-17 -13 -26 -30 -26 -49 0 -31 39 -70 70 -70 32 0 63 34 63 70 0 22 -7 39 -22 52 -30 23 -52 23 -85 -3z"/>
        <path d="M9372 5103 c-7 -3 -18 -16 -23 -30 -23 -61 61 -103 96 -49 13 19 14 29 5 45 -17 32 -48 46 -78 34z"/>
        <path d="M9950 5095 c-26 -32 13 -81 48 -59 34 22 22 74 -18 74 -10 0 -23 -7 -30 -15z"/>
        <path d="M10700 5095 c0 -9 5 -15 11 -13 6 2 11 8 11 13 0 5 -5 11 -11 13 -6 2 -11 -4 -11 -13z"/>
        <path d="M9809 5049 c-23 -23 -24 -33 -3 -53 33 -34 82 -8 70 38 -8 32 -42 40 -67 15z"/>
        <path d="M10550 5056 c0 -21 21 -31 30 -15 5 7 6 17 4 21 -9 14 -34 9 -34 -6z"/>
        <path d="M9222 5044 c-43 -30 -17 -104 36 -104 28 0 62 34 62 60 0 25 -34 60 -58 60 -10 0 -28 -7 -40 -16z"/>
        <path d="M10400 5011 c0 -24 25 -34 40 -16 15 18 5 35 -21 35 -12 0 -19 -7 -19 -19z"/>
        <path d="M9662 5008 c-7 -7 -12 -21 -12 -33 0 -12 5 -26 12 -33 7 -7 21 -12 33 -12 12 0 26 5 33 12 7 7 12 21 12 33 0 12 -5 26 -12 33 -7 7 -21 12 -33 12 -12 0 -26 -5 -33 -12z"/>
        <path d="M9080 4992 c-48 -39 -10 -121 49 -107 51 12 68 68 31 105 -25 25 -51 25 -80 2z"/>
        <path d="M10254 4975 c-8 -19 3 -35 26 -35 19 0 30 17 23 38 -6 17 -42 15 -49 -3z"/>
        <path d="M9515 4960 c-15 -16 -17 -26 -9 -48 17 -50 94 -39 94 14 0 49 -52 70 -85 34z"/>
        <path d="M8936 4939 c-29 -23 -33 -54 -10 -87 18 -26 74 -30 98 -6 35 34 5 114 -43 114 -10 0 -30 -9 -45 -21z"/>
        <path d="M10114 4946 c-20 -15 -13 -43 12 -53 10 -4 22 1 30 11 24 33 -9 66 -42 42z"/>
        <path d="M9364 4905 c-15 -23 -15 -27 0 -50 11 -17 26 -25 44 -25 35 0 52 16 52 50 0 34 -17 50 -52 50 -18 0 -33 -8 -44 -25z"/>
        <path d="M9965 4904 c-9 -9 -14 -23 -11 -31 3 -8 6 -17 6 -19 0 -2 11 -4 25 -4 33 0 51 33 29 54 -20 20 -29 20 -49 0z"/>
        <path d="M8820 4903 c-51 -19 -66 -77 -30 -113 51 -51 139 8 109 74 -9 19 -51 50 -62 45 -1 0 -9 -3 -17 -6z"/>
        <path d="M9232 4874 c-57 -39 6 -127 64 -90 29 20 32 65 6 89 -23 21 -41 21 -70 1z"/>
        <path d="M10710 4880 c0 -5 5 -10 10 -10 6 0 10 5 10 10 0 6 -4 10 -10 10 -5 0 -10 -4 -10 -10z"/>
        <path d="M9820 4866 c-6 -8 -10 -25 -8 -38 4 -30 46 -38 65 -12 17 23 16 29 -3 48 -19 20 -38 20 -54 2z"/>
        <path d="M10560 4845 c0 -8 7 -15 15 -15 8 0 15 7 15 15 0 8 -7 15 -15 15 -8 0 -15 -7 -15 -15z"/>
        <path d="M9082 4828 c-32 -41 -6 -108 42 -108 50 0 79 78 40 107 -23 16 -68 17 -82 1z"/>
        <path d="M9672 4828 c-16 -16 -15 -53 3 -68 19 -16 45 -10 61 15 26 39 -31 86 -64 53z"/>
        <path d="M10413 4814 c-8 -20 8 -36 26 -25 15 10 8 41 -9 41 -6 0 -13 -7 -17 -16z"/>
        <path d="M8955 4788 c-27 -15 -35 -28 -35 -59 0 -73 103 -80 125 -8 7 20 -17 69 -34 69 -5 0 -15 2 -23 5 -7 2 -22 -1 -33 -7z"/>
        <path d="M9528 4789 c-46 -26 5 -104 51 -79 14 7 21 21 21 38 0 46 -32 65 -72 41z"/>
        <path d="M10264 4775 c-4 -9 -2 -21 4 -27 15 -15 44 -1 40 19 -4 23 -36 29 -44 8z"/>
        <path d="M9375 4740 c-24 -27 -13 -68 22 -76 34 -9 57 6 61 40 6 53 -47 76 -83 36z"/>
        <path d="M10114 4745 c-9 -23 3 -45 26 -45 25 0 37 25 20 45 -16 19 -39 19 -46 0z"/>
        <path d="M8807 4739 c-27 -16 -39 -55 -25 -84 22 -49 104 -44 122 8 19 53 -48 105 -97 76z"/>
        <path d="M9975 4716 c-22 -16 -15 -50 11 -54 25 -4 47 19 38 41 -8 22 -29 28 -49 13z"/>
        <path d="M9242 4713 c-7 -3 -18 -16 -23 -30 -13 -36 12 -73 49 -73 35 0 52 17 52 51 0 45 -36 69 -78 52z"/>
        <path d="M9820 4675 c-6 -8 -9 -23 -5 -35 8 -25 51 -27 64 -2 20 38 -31 71 -59 37z"/>
        <path d="M9092 4664 c-42 -29 -18 -104 35 -104 49 0 72 76 31 104 -12 9 -27 16 -33 16 -6 0 -21 -7 -33 -16z"/>
        <path d="M9676 4644 c-9 -8 -16 -22 -16 -29 0 -17 27 -45 44 -45 36 0 49 62 17 80 -25 13 -27 13 -45 -6z"/>
        <path d="M10570 4634 c0 -8 5 -12 10 -9 6 4 8 11 5 16 -9 14 -15 11 -15 -7z"/>
        <path d="M8960 4627 c-50 -26 -52 -82 -4 -107 22 -12 29 -12 51 0 33 19 45 51 30 80 -16 30 -48 41 -77 27z"/>
        <path d="M9520 4600 c-15 -29 -3 -59 26 -66 30 -8 54 11 54 40 0 46 -59 64 -80 26z"/>
        <path d="M10422 4606 c1 -10 8 -17 13 -17 15 1 12 24 -3 29 -9 3 -13 -2 -10 -12z"/>
        <path d="M8803 4582 c-22 -14 -32 -57 -19 -83 29 -60 116 -41 116 25 0 51 -55 85 -97 58z"/>
        <path d="M9394 4580 c-30 -12 -37 -39 -19 -66 17 -27 56 -32 75 -10 29 36 -13 93 -56 76z"/>
        <path d="M10266 4575 c-3 -9 1 -18 10 -22 19 -7 39 11 30 26 -10 16 -33 13 -40 -4z"/>
        <path d="M10114 4545 c-8 -19 3 -35 26 -35 19 0 30 17 23 38 -6 17 -42 15 -49 -3z"/>
        <path d="M8652 4530 c-53 -50 7 -142 71 -108 29 15 37 27 37 61 0 58 -65 86 -108 47z"/>
        <path d="M9238 4538 c-28 -23 -29 -48 -3 -73 24 -25 43 -25 73 -2 18 14 15 51 -6 70 -22 20 -43 22 -64 5z"/>
        <path d="M9964 4515 c-4 -9 0 -23 9 -32 21 -21 49 -9 45 19 -4 28 -45 38 -54 13z"/>
        <path d="M9086 4494 c-34 -34 -9 -94 39 -94 25 0 55 33 55 61 0 41 -64 63 -94 33z"/>
        <path d="M9815 4479 c-10 -30 19 -53 47 -38 29 15 20 53 -14 57 -20 2 -28 -2 -33 -19z"/>
        <path d="M8936 4454 c-21 -20 -20 -58 0 -79 25 -24 75 -16 93 16 13 24 13 29 -2 53 -20 30 -66 35 -91 10z"/>
        <path d="M9671 4456 c-19 -22 -4 -56 23 -56 32 0 53 26 39 48 -14 23 -47 27 -62 8z"/>
        <path d="M8797 4419 c-33 -25 -35 -61 -5 -89 30 -27 62 -25 87 7 46 58 -24 128 -82 82z"/>
        <path d="M9522 4428 c-29 -29 -3 -72 40 -66 19 2 23 9 23 38 0 30 -4 35 -25 38 -14 2 -31 -3 -38 -10z"/>
        <path d="M9372 4398 c-7 -7 -12 -21 -12 -33 0 -12 5 -26 12 -33 7 -7 21 -12 33 -12 12 0 26 5 33 12 7 7 12 21 12 33 0 12 -5 26 -12 33 -7 7 -21 12 -33 12 -12 0 -26 -5 -33 -12z"/>
        <path d="M10420 4400 c0 -5 5 -10 10 -10 6 0 10 5 10 10 0 6 -4 10 -10 10 -5 0 -10 -4 -10 -10z"/>
        <path d="M8657 4389 c-39 -23 -41 -86 -3 -111 20 -14 63 -8 79 10 50 55 -13 138 -76 101z"/>
        <path d="M10264 4379 c-10 -17 13 -36 27 -22 12 12 4 33 -11 33 -5 0 -12 -5 -16 -11z"/>
        <path d="M9226 4364 c-21 -21 -20 -47 2 -67 23 -21 46 -22 66 -1 31 30 9 84 -34 84 -10 0 -26 -7 -34 -16z"/>
        <path d="M10110 4345 c0 -21 30 -31 40 -14 11 17 3 29 -21 29 -10 0 -19 -7 -19 -15z"/>
        <path d="M9080 4330 c-11 -11 -20 -28 -20 -38 0 -23 30 -52 53 -52 21 0 57 35 57 55 0 19 -36 55 -55 55 -8 0 -24 -9 -35 -20z"/>
        <path d="M9964 4325 c-4 -9 -2 -21 4 -27 15 -15 44 -1 40 19 -4 23 -36 29 -44 8z"/>
        <path d="M9822 4308 c-16 -16 -15 -45 1 -51 17 -6 47 11 47 28 0 21 -34 37 -48 23z"/>
        <path d="M8926 4291 c-23 -25 -15 -66 15 -82 49 -26 100 23 75 72 -16 32 -65 38 -90 10z"/>
        <path d="M9664 4276 c-10 -25 0 -51 20 -54 27 -6 48 25 35 49 -12 22 -47 25 -55 5z"/>
        <path d="M8780 4260 c-11 -11 -20 -26 -20 -34 0 -21 40 -66 59 -66 30 0 61 30 61 59 0 55 -61 80 -100 41z"/>
        <path d="M9511 4242 c-14 -27 8 -55 40 -50 19 2 24 9 24 33 0 25 -4 31 -27 33 -18 2 -30 -3 -37 -16z"/>
        <path d="M8640 4232 c-43 -35 -15 -112 39 -112 26 0 61 38 61 65 0 27 -35 65 -61 65 -9 0 -27 -8 -39 -18z"/>
        <path d="M9366 4224 c-9 -8 -16 -22 -16 -29 0 -13 37 -45 52 -45 12 0 38 31 38 45 0 18 -27 45 -45 45 -7 0 -21 -7 -29 -16z"/>
        <path d="M8486 4194 c-19 -19 -21 -64 -3 -87 6 -9 24 -19 39 -22 39 -10 83 34 73 73 -3 15 -13 33 -22 40 -23 17 -68 15 -87 -4z"/>
        <path d="M9210 4190 c-16 -29 -3 -59 27 -66 46 -12 77 52 39 78 -21 14 -55 8 -66 -12z"/>
        <path d="M9060 4160 c-14 -26 -5 -57 21 -71 43 -23 92 44 57 79 -20 20 -66 15 -78 -8z"/>
        <path d="M10260 4170 c0 -5 5 -10 10 -10 6 0 10 5 10 10 0 6 -4 10 -10 10 -5 0 -10 -4 -10 -10z"/>
        <path d="M10110 4150 c0 -13 5 -20 13 -17 6 2 12 10 12 17 0 7 -6 15 -12 18 -8 2 -13 -5 -13 -18z"/>
        <path d="M8933 4149 c-31 -11 -40 -54 -18 -79 23 -26 57 -25 80 0 36 40 -10 99 -62 79z"/>
        <path d="M9953 4134 c-8 -20 17 -36 34 -22 10 8 10 14 2 24 -15 18 -28 18 -36 -2z"/>
        <path d="M8770 4110 c-32 -32 -24 -75 18 -91 56 -21 98 54 54 94 -25 22 -48 21 -72 -3z"/>
        <path d="M9804 4116 c-8 -21 3 -36 27 -36 15 0 20 6 17 22 -4 27 -35 37 -44 14z"/>
        <path d="M9654 4095 c-9 -23 3 -45 25 -45 23 0 35 28 20 46 -15 18 -38 18 -45 -1z"/>
        <path d="M8620 4080 c-24 -24 -25 -48 -4 -78 30 -43 104 -17 104 36 0 28 -34 62 -60 62 -11 0 -29 -9 -40 -20z"/>
        <path d="M9501 4071 c-7 -13 -6 -23 3 -36 17 -24 50 -15 54 14 6 39 -39 56 -57 22z"/>
        <path d="M8470 4050 c-35 -35 -20 -85 30 -102 45 -16 91 42 69 85 -23 43 -66 50 -99 17z"/>
        <path d="M9355 4054 c-19 -20 -16 -43 8 -58 37 -23 77 35 41 61 -23 17 -29 16 -49 -3z"/>
        <path d="M9194 4015 c-9 -36 15 -60 51 -51 22 6 26 11 23 39 -3 28 -7 32 -35 35 -28 3 -33 -1 -39 -23z"/>
        <path d="M9052 4008 c-7 -7 -12 -21 -12 -33 0 -12 5 -26 12 -33 7 -7 21 -12 33 -12 12 0 26 5 33 12 7 7 12 21 12 33 0 12 -5 26 -12 33 -7 7 -21 12 -33 12 -12 0 -26 -5 -33 -12z"/>
        <path d="M8902 3988 c-7 -7 -12 -24 -12 -38 0 -53 57 -69 86 -25 15 23 15 27 0 50 -18 27 -54 33 -74 13z"/>
        <path d="M8755 3956 c-26 -26 -25 -51 3 -73 34 -28 82 -3 82 42 0 22 -32 55 -53 55 -4 0 -19 -11 -32 -24z"/>
        <path d="M10100 3960 c0 -5 5 -10 10 -10 6 0 10 5 10 10 0 6 -4 10 -10 10 -5 0 -10 -4 -10 -10z"/>
        <path d="M9946 3953 c-11 -11 -6 -23 9 -23 8 0 15 4 15 9 0 13 -16 22 -24 14z"/>
        <path d="M8594 3925 c-9 -14 -13 -32 -9 -45 15 -47 86 -50 107 -5 27 59 -62 105 -98 50z"/>
        <path d="M9792 3923 c2 -10 10 -18 18 -18 22 0 18 29 -3 33 -14 3 -18 -1 -15 -15z"/>
        <path d="M8450 3910 c-11 -11 -20 -29 -20 -40 0 -27 35 -60 63 -60 50 0 76 70 39 103 -25 23 -58 21 -82 -3z"/>
        <path d="M9641 3916 c-16 -19 -6 -36 20 -36 15 0 20 6 17 22 -4 27 -21 33 -37 14z"/>
        <path d="M9483 3894 c-3 -8 2 -23 11 -32 15 -15 17 -15 32 0 21 21 11 48 -16 48 -11 0 -23 -7 -27 -16z"/>
        <path d="M9340 3885 c-19 -23 -8 -50 20 -50 16 0 26 6 28 18 4 18 -14 47 -28 47 -4 0 -13 -7 -20 -15z"/>
        <path d="M9179 3858 c-10 -18 -8 -24 10 -39 25 -21 48 -16 56 12 14 44 -44 67 -66 27z"/>
        <path d="M9031 3846 c-16 -19 -11 -46 12 -60 25 -16 52 4 52 40 0 24 -5 30 -26 32 -14 2 -31 -4 -38 -12z"/>
        <path d="M8880 3825 c-15 -19 -6 -61 16 -69 22 -8 64 20 64 42 0 39 -55 57 -80 27z"/>
        <path d="M8738 3819 c-21 -12 -24 -59 -6 -77 7 -7 21 -12 33 -12 12 0 26 5 33 12 19 19 15 66 -7 78 -24 12 -31 12 -53 -1z"/>
        <path d="M8576 3787 c-19 -28 -11 -61 17 -74 52 -24 99 36 62 77 -24 27 -61 25 -79 -3z"/>
        <path d="M8426 3774 c-33 -33 -7 -94 41 -94 42 0 71 68 41 98 -17 17 -64 15 -82 -4z"/>
        <path d="M8300 3773 c-22 -8 -40 -34 -40 -58 0 -51 75 -74 104 -33 22 31 20 45 -9 73 -25 26 -29 27 -55 18z"/>
        <path d="M9775 3751 c-3 -5 -1 -12 5 -16 5 -3 10 1 10 9 0 18 -6 21 -15 7z"/>
        <path d="M9625 3740 c-4 -6 -3 -16 3 -22 6 -6 12 -6 17 2 4 6 3 16 -3 22 -6 6 -12 6 -17 -2z"/>
        <path d="M9471 3726 c-9 -10 -8 -16 3 -25 10 -9 16 -8 25 3 9 10 8 16 -3 25 -10 9 -16 8 -25 -3z"/>
        <path d="M9317 3724 c-12 -12 -8 -42 6 -47 21 -8 39 8 35 29 -3 19 -29 30 -41 18z"/>
        <path d="M9166 3704 c-8 -8 -13 -21 -10 -29 9 -22 37 -28 51 -10 23 33 -13 67 -41 39z"/>
        <path d="M9007 3694 c-27 -27 20 -77 49 -53 23 19 13 53 -16 57 -14 2 -29 0 -33 -4z"/>
        <path d="M8857 3683 c-12 -12 -7 -50 8 -63 17 -14 51 -5 59 16 13 35 -41 73 -67 47z"/>
        <path d="M8700 3661 c-18 -35 18 -79 54 -65 22 8 31 51 16 69 -18 21 -57 19 -70 -4z"/>
        <path d="M8555 3654 c-34 -35 6 -91 53 -73 15 6 22 17 22 37 0 49 -42 69 -75 36z"/>
        <path d="M8406 3644 c-20 -19 -21 -58 -2 -73 25 -21 69 -9 80 21 17 50 -42 89 -78 52z"/>
        <path d="M8262 3643 c-7 -3 -18 -16 -23 -30 -13 -36 12 -73 49 -73 35 0 52 17 52 51 0 40 -41 67 -78 52z"/>
        <path d="M9296 3553 c-11 -11 -6 -23 9 -23 8 0 15 4 15 9 0 13 -16 22 -24 14z"/>
        <path d="M9450 3549 c0 -5 5 -7 10 -4 6 3 10 8 10 11 0 2 -4 4 -10 4 -5 0 -10 -5 -10 -11z"/>
        <path d="M8993 3543 c-17 -6 -17 -28 0 -41 17 -14 40 1 35 23 -3 20 -16 26 -35 18z"/>
        <path d="M9140 3530 c0 -15 5 -20 18 -18 9 2 17 10 17 18 0 8 -8 16 -17 18 -13 2 -18 -3 -18 -18z"/>
        <path d="M8685 3526 c-27 -20 -15 -51 20 -51 23 0 31 5 33 22 4 29 -28 47 -53 29z"/>
        <path d="M8834 3525 c-8 -21 2 -45 19 -45 8 0 20 7 27 15 10 12 10 18 0 30 -7 8 -19 15 -27 15 -7 0 -16 -7 -19 -15z"/>
        <path d="M8382 3514 c-38 -26 -22 -74 24 -74 45 0 58 50 19 76 -18 12 -24 11 -43 -2z"/>
        <path d="M8532 3518 c-28 -28 -1 -75 37 -63 25 8 34 31 21 56 -12 21 -40 25 -58 7z"/>
        <path d="M8222 3508 c-13 -13 -16 -47 -4 -64 25 -36 82 -20 82 24 0 33 -16 52 -45 52 -12 0 -26 -5 -33 -12z"/>
        <path d="M8064 3486 c-15 -24 -15 -28 0 -51 33 -50 110 -14 90 43 -14 39 -66 44 -90 8z"/>
        <path d="M7887 3383 c-4 -3 -7 -18 -7 -33 0 -49 42 -66 75 -30 26 29 7 70 -33 70 -16 0 -32 -3 -35 -7z"/>
        <path d="M8041 3376 c-16 -19 -11 -46 12 -60 25 -16 52 4 52 40 0 24 -5 30 -26 32 -14 2 -31 -4 -38 -12z"/>
        <path d="M8191 3371 c-13 -24 8 -55 34 -50 28 6 42 34 26 53 -18 22 -48 20 -60 -3z"/>
        <path d="M8344 3376 c-10 -26 4 -48 28 -44 17 2 23 10 23 28 0 18 -6 26 -23 28 -13 2 -25 -3 -28 -12z"/>
        <path d="M8507 3384 c-4 -4 -7 -16 -7 -26 0 -14 6 -19 23 -16 14 2 22 10 22 23 0 20 -25 32 -38 19z"/>
        <path d="M8655 3381 c-8 -15 3 -31 21 -31 9 0 14 7 12 17 -4 20 -24 28 -33 14z"/>
        <path d="M8810 3370 c0 -13 5 -20 13 -17 6 2 12 10 12 17 0 7 -6 15 -12 18 -8 2 -13 -5 -13 -18z"/>
        <path d="M8960 3376 c0 -9 7 -16 16 -16 17 0 14 22 -4 28 -7 2 -12 -3 -12 -12z"/>
        <path d="M9115 3381 c-3 -5 -1 -12 5 -16 5 -3 10 1 10 9 0 18 -6 21 -15 7z"/>
        <path d="M7850 3270 c-8 -14 -8 -26 0 -40 14 -26 56 -26 70 -1 13 25 13 27 -6 45 -21 22 -51 20 -64 -4z"/>
        <path d="M8003 3264 c-8 -22 10 -49 32 -49 10 0 22 7 28 16 15 24 1 49 -28 49 -15 0 -28 -7 -32 -16z"/>
        <path d="M8161 3266 c-16 -20 -3 -46 24 -46 27 0 36 17 23 43 -10 20 -31 22 -47 3z"/>
        <path d="M8314 3255 c-4 -9 -2 -21 4 -27 15 -15 44 -1 40 19 -4 23 -36 29 -44 8z"/>
        <path d="M8470 3246 c0 -8 4 -17 9 -20 11 -7 33 18 24 27 -12 12 -33 7 -33 -7z"/>
        <path d="M8627 3253 c-12 -11 -8 -23 8 -23 8 0 15 7 15 15 0 16 -12 20 -23 8z"/>
        <path d="M8776 3252 c-3 -6 -1 -14 5 -17 15 -10 25 3 12 16 -7 7 -13 7 -17 1z"/>
    </g>
</svg>
